<?xml version="1.0" encoding="UTF-8" standalone="no"?>
<!DOCTYPE svg PUBLIC "-//W3C//DTD SVG 1.1//EN" "http://www.w3.org/Graphics/SVG/1.1/DTD/svg11.dtd">
<svg width="100%" height="100%" viewBox="0 0 898 550" version="1.1" xmlns="http://www.w3.org/2000/svg" xmlns:xlink="http://www.w3.org/1999/xlink" xml:space="preserve" xmlns:serif="http://www.serif.com/" style="fill-rule:evenodd;clip-rule:evenodd;stroke-linejoin:round;stroke-miterlimit:2;" fill="#FFFFFF">
    <g transform="matrix(1.170623,0,0,1.184842,-190.394654,-3631.292775)">
        <path d="M184,3507.874L605.983,3085.891L605.983,3507.874L184,3507.874ZM286.243,3465.674L563.27,3465.674L563.27,3188.647L286.243,3465.674Z"/>
    </g>
    <g transform="matrix(1,0,0,1,-247,-2384.891339)">
        <path d="M860.763,2724.736L1056.187,2909.874L715.983,2909.874L715.983,2587.576L764.763,2633.789C754.616,2645.136 753.278,2691.956 760.983,2703.82C761.351,2704.386 761.435,2703.437 760.983,2703.82L765.983,2859.874L930.707,2859.874L822.559,2757.418C823.011,2757.035 821.287,2757.058 821.818,2756.641C833.114,2747.778 850.616,2736.083 860.763,2724.736Z"/>
    </g>
    <g transform="matrix(-0.957344,0,-0,-0.803683,1049.116689,3005.06186)">
        <path d="M184,3507.874L605.983,3085.891L605.983,3507.874L184,3507.874ZM327.443,3445.66L553.755,3445.66L553.755,3219.349L327.443,3445.66Z"/>
    </g>
</svg>
